<?xml version="1.0" standalone="no"?>
<!DOCTYPE svg PUBLIC "-//W3C//DTD SVG 20010904//EN"
 "http://www.w3.org/TR/2001/REC-SVG-20010904/DTD/svg10.dtd">
<svg version="1.0" xmlns="http://www.w3.org/2000/svg"
 width="596.000000pt" height="596.000000pt" viewBox="0 0 596.000000 596.000000"
 preserveAspectRatio="xMidYMid meet">
<metadata>
Created by potrace 1.11, written by Peter Selinger 2001-2013
</metadata>
<g transform="translate(0.000000,596.000000) scale(0.100000,-0.100000)"
fill="#000000" stroke="none">
<path d="M3015 4311 c-3 -5 -1 -12 5 -16 5 -3 10 1 10 9 0 18 -6 21 -15 7z"/>
<path d="M3540 4255 c0 -8 16 -27 35 -42 19 -15 35 -34 35 -41 0 -15 67 -45
85 -38 7 2 21 -4 30 -14 18 -20 132 -66 142 -57 3 4 -3 10 -13 14 -16 6 -152
95 -258 170 -36 26 -56 29 -56 8z"/>
<path d="M5876 4238 c-3 -13 -6 -35 -6 -50 0 -27 -1 -28 -59 -28 -33 0 -63 5
-66 10 -3 6 -11 10 -16 10 -6 0 -7 -4 -4 -10 3 -5 1 -10 -4 -10 -6 0 -10 8 -9
18 4 51 -2 72 -22 72 -21 0 -24 -4 -34 -52 -6 -25 -11 -28 -46 -28 -58 0 -54
-26 6 -33 28 -3 50 -12 59 -23 12 -17 11 -19 -16 -22 -37 -4 -38 -30 -1 -34
l27 -3 5 -175 6 -175 2 176 2 176 25 -5 25 -4 0 -503 0 -502 -30 -44 -31 -44
31 35 30 34 0 -36 c0 -30 -5 -40 -34 -57 -18 -12 -40 -21 -49 -21 -8 0 -17 -9
-20 -21 -4 -16 -12 -20 -39 -17 -18 2 -34 9 -34 16 -1 6 -2 19 -3 27 -2 24
-20 17 -27 -10 -5 -21 -12 -25 -46 -25 -34 0 -39 2 -33 19 3 11 1 22 -5 26 -7
4 -14 -2 -17 -14 -3 -13 -14 -21 -27 -22 -20 0 -20 -1 2 -10 18 -7 22 -14 17
-29 -6 -18 -3 -20 20 -14 l26 6 -3 -93 c-3 -88 -4 -94 -28 -106 -23 -12 -26
-10 -36 14 l-11 26 -36 -37 c-20 -21 -41 -35 -46 -32 -5 4 -12 2 -16 -3 -3 -6
-12 -8 -19 -5 -8 3 -17 1 -20 -5 -4 -6 -13 -8 -20 -5 -9 3 -18 -6 -24 -25
l-11 -30 -56 25 c-34 15 -62 21 -69 16 -6 -4 -41 -21 -78 -36 -38 -16 -68 -32
-68 -37 0 -5 -9 -9 -19 -9 -12 0 -21 -9 -25 -24 -7 -27 -92 -81 -102 -65 -3 5
-10 7 -15 4 -5 -4 -13 5 -19 19 -11 30 -25 33 -40 9 -8 -13 -13 -14 -16 -5 -9
21 -22 14 -33 -19 -6 -17 -20 -33 -31 -36 -11 -3 -20 -12 -20 -20 0 -9 -6 -13
-15 -9 -20 7 -38 -30 -31 -65 3 -16 1 -29 -4 -29 -17 0 -11 -17 16 -49 19 -22
22 -31 11 -31 -8 0 -17 7 -21 15 -3 8 -14 15 -25 15 -11 0 -21 6 -24 13 -3 8
-9 7 -19 -6 -12 -16 -18 -17 -40 -6 -38 17 -75 4 -93 -32 -13 -25 -19 -28 -31
-18 -8 6 -16 10 -18 8 -13 -14 -44 -88 -40 -92 3 -3 3 -11 -1 -18 -6 -8 -12
-4 -21 12 -17 32 -23 30 -43 -10 -25 -53 -35 -52 -90 14 -7 9 -20 14 -28 11
-36 -14 -83 45 -57 71 9 10 10 22 3 45 -5 18 -9 34 -9 35 0 2 -4 3 -8 3 -12 0
-31 -58 -25 -79 6 -22 -24 -84 -37 -76 -5 3 -11 1 -15 -5 -4 -6 -16 -5 -34 5
-15 7 -32 10 -37 6 -13 -12 -103 -61 -112 -61 -5 0 -14 16 -22 35 -18 46 -36
44 -56 -5 -19 -48 -38 -59 -104 -65 -42 -3 -50 -1 -55 16 -7 23 -25 26 -25 4
0 -19 -29 -15 -115 15 -44 15 -81 20 -141 19 -45 -1 -86 1 -93 5 -6 4 -11 0
-11 -9 0 -9 -4 -13 -10 -10 -5 3 -10 1 -10 -5 0 -6 -4 -8 -10 -5 -5 3 -10 -1
-10 -9 0 -10 -12 -16 -37 -18 -30 -2 -41 -9 -51 -30 -19 -41 -50 -54 -69 -31
-14 17 -14 17 -10 -5 7 -29 -4 -28 -43 6 -29 26 -32 33 -29 76 4 39 2 44 -8
29 -7 -9 -13 -25 -13 -36 0 -35 -25 -11 -28 27 -2 26 5 51 24 84 23 41 27 57
25 120 -2 60 0 72 13 72 18 0 21 16 5 26 -13 8 -6 59 14 106 11 24 14 67 12
163 -3 179 -4 187 -15 180 -5 -3 -7 -33 -3 -70 4 -46 2 -65 -6 -65 -6 0 -11
-11 -11 -24 0 -14 -10 -30 -23 -39 -23 -15 -24 -23 -30 -167 -5 -112 -11 -155
-21 -166 -8 -8 -17 -36 -21 -62 -3 -26 -10 -64 -16 -85 -11 -41 0 -67 27 -67
8 0 14 -9 14 -21 0 -12 13 -38 30 -59 l30 -38 -23 -6 c-12 -3 -39 -6 -60 -6
-21 0 -48 -7 -60 -15 -23 -15 -146 -47 -182 -47 -54 -1 -163 17 -182 30 -12 7
-28 29 -35 48 -13 36 -23 43 -31 22 -3 -8 -6 -6 -6 5 -1 22 -18 22 -24 0 -4
-17 -5 -17 -6 0 -1 12 -5 15 -13 10 -7 -4 -23 -9 -35 -11 -19 -2 -22 2 -21 23
1 15 8 31 15 37 17 14 17 39 -1 32 -9 -4 -15 7 -20 35 -5 32 -45 133 -64 161
-6 9 -20 -24 -15 -37 3 -7 0 -13 -6 -13 -6 0 -11 11 -11 25 0 29 -14 33 -25 8
-9 -21 -11 -30 -13 -60 -1 -13 -9 -23 -17 -23 -9 0 -15 -10 -15 -26 0 -14 -4
-22 -10 -19 -5 3 -27 -7 -47 -24 -21 -17 -59 -39 -84 -50 -26 -12 -52 -28 -59
-36 -14 -17 -46 -20 -55 -5 -4 6 -11 8 -16 5 -5 -4 -9 -1 -9 4 0 6 -7 11 -15
11 -8 0 -15 6 -15 13 -1 8 -5 7 -13 -4 -7 -9 -18 -14 -26 -11 -8 3 -11 0 -7
-6 3 -5 -2 -13 -11 -16 -16 -7 -22 -1 -48 49 -13 25 -43 40 -120 60 -67 17
-83 28 -68 47 11 13 4 27 -85 161 -15 22 -36 40 -51 43 -14 3 -39 8 -56 13
-29 7 -29 7 20 20 l50 13 -32 26 c-46 40 -114 79 -149 86 -23 5 -37 1 -57 -14
-30 -24 -37 -9 -12 24 20 27 19 43 -4 51 -28 9 -61 40 -61 59 0 9 -4 16 -10
16 -5 0 -18 10 -30 22 -11 12 -20 17 -20 10 0 -8 -7 -9 -22 -3 -13 5 -32 5
-43 0 -49 -19 -64 8 -20 37 30 20 32 34 5 34 -11 0 -21 6 -22 13 -1 13 -2 18
-13 65 -4 17 -10 32 -12 32 -2 0 -24 -13 -48 -30 -24 -16 -56 -35 -71 -40 -15
-6 -41 -22 -58 -36 -157 -126 -203 -153 -233 -133 -10 6 -27 30 -39 53 -17 34
-26 41 -47 39 -15 -1 -27 2 -27 7 0 5 -6 7 -14 4 -17 -6 -58 35 -93 94 -14 23
-37 49 -52 56 -17 10 -32 31 -44 66 -10 29 -20 50 -23 47 -2 -2 3 -23 11 -47
18 -52 19 -68 3 -52 -7 7 -22 12 -35 12 l-23 0 0 -900 0 -900 2980 0 2980 0
-2 987 c-3 866 -5 987 -18 991 -12 4 -13 3 -2 -10 19 -23 -13 -32 -44 -12 -30
20 -30 45 -3 93 21 36 21 36 0 11 l-21 -25 0 140 c0 77 7 185 15 240 8 55 20
205 27 333 11 212 14 232 30 232 27 0 23 38 -4 43 l-23 4 23 2 c23 1 29 15 12
26 -5 3 -10 15 -10 26 0 11 5 17 10 14 14 -9 12 9 -2 23 -7 7 -13 22 -13 35 0
33 -50 37 -59 5z m-141 -138 c3 -5 -3 -10 -14 -10 -12 0 -21 5 -21 10 0 6 6
10 14 10 8 0 18 -4 21 -10z m170 -207 c-14 -312 -22 -338 -24 -75 -1 219 1
242 15 242 15 0 16 -16 9 -167z m-155 -968 c0 -8 -7 -15 -15 -15 -9 0 -27 -7
-40 -16 -14 -9 -25 -12 -25 -8 0 7 65 51 78 54 1 0 2 -7 2 -15z m-273 -71 c-3
-3 -12 -4 -19 -1 -8 3 -5 6 6 6 11 1 17 -2 13 -5z m136 -6 c-5 -7 -15 -31 -22
-53 -8 -22 -20 -49 -27 -60 -13 -17 -14 -13 -14 44 0 58 2 63 20 58 11 -3 22
-1 25 3 3 5 -3 11 -12 13 -11 3 -6 5 11 6 21 1 26 -2 19 -11z m-3548 -748 c3
-5 1 -10 -4 -10 -6 0 -11 5 -11 10 0 6 2 10 4 10 3 0 8 -4 11 -10z m69 -55 c3
-8 1 -15 -3 -15 -5 0 -11 7 -15 15 -3 8 -1 15 3 15 5 0 11 -7 15 -15z"/>
<path d="M3290 4214 c11 -28 23 -41 60 -67 47 -33 45 -16 -5 38 -57 61 -69 68
-55 29z"/>
<path d="M2447 4183 c-4 -3 -7 -16 -7 -27 0 -12 -23 -45 -50 -73 -53 -56 -54
-58 -16 -106 13 -17 15 -17 50 4 20 11 36 28 36 37 1 10 14 33 30 52 37 43 37
59 2 93 -30 29 -35 31 -45 20z"/>
<path d="M3224 3986 c-18 -14 -18 -15 11 -26 88 -34 142 -50 166 -50 14 0 34
-9 44 -20 10 -11 56 -43 102 -71 85 -51 119 -57 119 -20 0 10 -6 17 -12 14 -7
-2 -15 1 -20 8 -5 8 -3 10 7 4 8 -5 11 -4 6 1 -9 9 -14 11 -45 13 -11 0 -45
24 -76 51 -31 28 -65 50 -74 50 -10 0 -28 7 -41 16 -16 11 -43 17 -80 16 -31
0 -50 2 -43 4 6 3 12 10 12 15 0 14 -54 11 -76 -5z"/>
<path d="M2168 3892 c-56 -58 -56 -58 -115 -57 -68 1 -83 -2 -83 -21 0 -8 -6
-11 -15 -8 -9 4 -15 0 -15 -10 0 -10 8 -16 21 -16 19 0 20 -2 8 -17 -8 -9 -10
-18 -4 -20 33 -11 39 -21 25 -38 -12 -15 -12 -19 5 -31 42 -31 117 -8 151 44
23 36 71 77 101 86 19 6 20 10 11 37 -8 24 -7 33 7 49 17 19 17 20 -6 39 -13
11 -26 20 -29 21 -3 0 -31 -26 -62 -58z m-90 -100 c2 -8 -4 -11 -19 -9 -13 2
-25 9 -27 16 -3 8 4 12 19 9 12 -1 24 -9 27 -16z"/>
<path d="M2020 3860 c0 -5 7 -10 15 -10 8 0 15 5 15 10 0 6 -7 10 -15 10 -8 0
-15 -4 -15 -10z"/>
<path d="M3655 3761 c-7 -13 43 -51 67 -51 19 0 19 1 -2 30 -21 29 -53 40 -65
21z"/>
<path d="M3846 3690 c16 -9 43 -32 59 -49 17 -18 54 -46 82 -62 29 -17 57 -37
61 -46 6 -9 12 -12 16 -5 3 5 0 12 -7 15 -7 3 -19 23 -27 46 -10 32 -23 47
-59 68 -25 14 -49 32 -53 38 -4 7 -28 12 -54 13 l-46 0 28 -18z"/>
<path d="M3776 3651 c-3 -4 6 -19 20 -32 14 -13 43 -47 66 -76 22 -29 44 -53
49 -53 16 0 10 38 -12 77 -11 21 -14 29 -5 19 8 -10 17 -24 19 -30 3 -8 8 -7
18 1 10 10 8 17 -11 38 -13 14 -30 23 -38 20 -7 -2 -10 0 -7 5 3 6 0 10 -8 10
-8 0 -17 7 -21 15 -6 16 -61 21 -70 6z"/>
<path d="M5683 3585 c0 -44 2 -61 4 -37 2 23 2 59 0 80 -2 20 -4 1 -4 -43z"/>
<path d="M2119 3533 c-14 -3 -23 -29 -43 -125 -3 -15 -1 -30 4 -33 18 -11 60
23 60 49 0 13 9 35 20 49 18 22 19 29 8 47 -13 20 -19 22 -49 13z"/>
<path d="M1495 3509 c3 -13 -2 -27 -13 -35 -15 -12 -15 -15 -2 -23 19 -13 55
9 55 34 0 10 -10 24 -22 32 -21 14 -22 14 -18 -8z"/>
<path d="M5673 3440 c0 -30 2 -43 4 -27 2 15 2 39 0 55 -2 15 -4 2 -4 -28z"/>
<path d="M1827 3451 c-4 -16 -18 -41 -33 -55 -25 -22 -26 -28 -16 -51 7 -14
12 -29 12 -33 0 -15 -60 -73 -70 -67 -5 3 -10 2 -10 -4 0 -5 -7 -17 -16 -25
-14 -15 -10 -16 44 -16 73 0 65 -15 101 175 4 23 11 46 15 53 8 14 -1 52 -13
52 -5 0 -11 -13 -14 -29z"/>
<path d="M1644 3419 c0 -33 12 -30 18 4 3 14 0 24 -7 24 -6 0 -11 -13 -11 -28z"/>
<path d="M4017 3416 c-30 -45 -30 -69 2 -136 17 -36 31 -70 31 -77 0 -27 21
-22 34 8 13 31 12 37 -11 81 -14 27 -23 57 -20 68 3 11 1 18 -3 15 -5 -3 -8 8
-8 25 1 41 -6 46 -25 16z"/>
<path d="M1600 3392 c0 -4 5 -13 11 -19 19 -19 1 -33 -27 -23 -32 13 -44 13
-44 0 0 -5 14 -10 30 -10 17 0 30 -4 30 -10 0 -5 -17 -10 -39 -10 -28 0 -40
-5 -44 -17 -3 -10 -16 -58 -29 -108 l-25 -90 27 -22 27 -22 31 22 c30 22 46
49 42 76 -1 8 4 10 12 5 8 -4 10 -3 5 2 -5 5 -23 14 -40 21 l-32 11 49 1 c47
1 49 2 30 17 -18 15 -17 15 14 10 18 -3 32 -1 32 4 0 6 -9 10 -20 10 -15 0
-19 5 -16 23 3 12 5 22 6 22 1 0 3 11 4 25 0 14 5 31 10 38 5 8 1 20 -10 33
-18 20 -34 25 -34 11z"/>
<path d="M2345 3390 c-3 -5 -23 -11 -43 -11 -22 -1 -29 -3 -17 -6 11 -3 25 -9
31 -14 8 -6 17 -1 28 16 9 14 14 25 12 25 -3 0 -8 -4 -11 -10z"/>
<path d="M5662 3330 c0 -14 2 -19 5 -12 2 6 2 18 0 25 -3 6 -5 1 -5 -13z"/>
<path d="M2185 3330 c-8 -13 15 -13 35 0 12 8 11 10 -7 10 -12 0 -25 -4 -28
-10z"/>
<path d="M4270 3310 c9 -16 8 -18 -5 -14 -18 7 -20 -17 -3 -34 8 -8 8 -12 1
-12 -6 0 -14 -7 -17 -16 -3 -8 -2 -12 4 -9 6 3 10 -1 10 -9 0 -9 9 -16 20 -16
11 0 20 -6 20 -14 0 -8 5 -18 12 -22 7 -5 9 0 6 14 -4 13 0 23 8 26 8 3 14 -1
14 -10 0 -14 2 -14 15 0 13 12 13 23 4 67 -8 36 -14 47 -20 38 -7 -12 -9 -12
-9 0 0 8 -7 11 -19 8 -14 -3 -18 -1 -14 9 3 9 -2 14 -16 14 -19 0 -20 -3 -11
-20z"/>
<path d="M2665 3310 c-4 -6 -15 -10 -25 -10 -28 0 -32 -15 -4 -16 13 -1 24 2
24 6 0 5 10 10 23 12 19 3 19 4 5 10 -10 4 -20 3 -23 -2z"/>
<path d="M2465 3299 c-16 -8 -15 -9 10 -5 16 2 39 -1 50 -7 18 -9 19 -9 6 6
-15 19 -36 21 -66 6z"/>
<path d="M2831 3281 c-8 -5 -9 -11 -3 -15 6 -3 14 -2 17 4 4 6 16 8 27 4 14
-4 18 -2 14 5 -8 13 -36 14 -55 2z"/>
<path d="M5652 3260 c0 -14 2 -19 5 -12 2 6 2 18 0 25 -3 6 -5 1 -5 -13z"/>
<path d="M2715 3250 c-8 -13 15 -13 35 0 12 8 11 10 -7 10 -12 0 -25 -4 -28
-10z"/>
<path d="M2935 3240 c-7 -12 12 -12 40 0 18 8 17 9 -7 9 -15 1 -30 -3 -33 -9z"/>
<path d="M3109 3231 c23 -18 26 -18 47 -3 12 10 20 19 18 21 -2 2 -10 -1 -18
-8 -10 -8 -22 -9 -42 -1 l-29 10 24 -19z"/>
<path d="M3240 3246 c0 -3 17 -10 38 -16 20 -7 45 -20 55 -28 13 -11 20 -13
25 -5 4 6 16 13 27 16 13 4 10 5 -10 5 -16 -1 -43 3 -60 7 l-30 9 25 7 c19 5
14 7 -22 8 -27 1 -48 -1 -48 -3z"/>
<path d="M3020 3221 c-17 -5 -21 -9 -12 -15 6 -4 22 0 34 8 24 17 19 18 -22 7z"/>
<path d="M5641 3204 c0 -11 3 -14 6 -6 3 7 2 16 -1 19 -3 4 -6 -2 -5 -13z"/>
<path d="M4087 3187 c-20 -31 -22 -51 -4 -65 7 -6 24 -33 36 -60 16 -35 33
-54 57 -66 42 -19 44 -20 44 -3 0 6 -16 27 -35 44 -20 19 -35 42 -35 55 0 13
-10 45 -23 72 l-23 49 -17 -26z"/>
<path d="M100 3181 c0 -17 -7 -20 -52 -23 l-53 -3 67 -5 c65 -5 66 -5 64 20
-4 29 -26 40 -26 11z"/>
<path d="M3376 3182 c-3 -6 8 -9 27 -8 17 1 45 -4 60 -12 20 -10 31 -11 41 -3
7 6 17 7 22 2 5 -4 20 -2 34 5 l25 14 -25 -2 c-14 -1 -36 2 -49 6 -18 6 -22 5
-16 -5 6 -9 2 -10 -16 -4 -42 13 -96 17 -103 7z"/>
<path d="M3279 3171 c12 -8 51 -4 51 5 0 2 -15 4 -32 4 -23 0 -29 -3 -19 -9z"/>
<path d="M1713 3163 c-7 -2 -13 -9 -13 -14 0 -4 7 -6 14 -3 12 5 14 -3 13 -33
-3 -35 -5 -38 -35 -41 -44 -4 -40 -16 9 -31 26 -8 43 -20 46 -32 3 -11 19 -23
37 -27 25 -7 30 -14 28 -32 -1 -13 5 -35 15 -49 l17 -26 8 30 c4 17 3 34 -2
39 -6 6 -10 20 -10 32 0 12 -6 22 -12 21 -65 -2 -83 28 -62 106 7 28 14 55 14
60 0 8 -48 8 -67 0z"/>
<path d="M5631 3154 c0 -11 3 -14 6 -6 3 7 2 16 -1 19 -3 4 -6 -2 -5 -13z"/>
<path d="M3150 3150 c-12 -8 -10 -10 10 -10 14 0 32 5 40 10 12 8 10 10 -10
10 -14 0 -32 -5 -40 -10z"/>
<path d="M3625 3153 c-11 -3 -24 -9 -29 -14 -5 -5 5 -4 24 1 33 9 54 5 46 -9
-3 -4 4 -7 14 -8 11 -1 22 3 25 8 4 5 11 7 16 4 5 -4 9 -1 9 5 0 6 -10 8 -24
4 -13 -3 -27 -1 -30 5 -7 11 -17 12 -51 4z"/>
<path d="M0 3130 c0 -6 7 -10 15 -10 8 0 15 2 15 4 0 2 -7 6 -15 10 -8 3 -15
1 -15 -4z"/>
<path d="M5930 3111 c7 -14 6 -21 -2 -23 -7 -3 -2 -7 10 -10 16 -5 22 -2 22
11 0 18 -18 41 -32 41 -5 0 -4 -9 2 -19z"/>
<path d="M4311 3098 c-5 -13 -6 -29 -3 -37 3 -9 1 -12 -6 -7 -17 10 -15 1 9
-47 12 -23 37 -57 55 -75 19 -18 34 -42 34 -53 0 -11 16 -35 35 -55 29 -29 35
-31 35 -16 0 11 -6 25 -14 31 -8 7 -16 35 -19 64 -2 29 -9 69 -15 89 -8 31 -7
40 9 54 25 23 15 34 -25 27 -29 -4 -37 -1 -51 21 -21 32 -33 33 -44 4z"/>
<path d="M3715 3090 l-20 -9 20 0 c11 0 29 4 40 9 l20 9 -20 0 c-11 0 -29 -4
-40 -9z"/>
<path d="M1541 3053 c-9 -7 -25 -13 -37 -13 -38 0 -56 -34 -65 -122 -8 -79 -8
-84 13 -98 12 -8 46 -39 75 -68 50 -51 52 -52 63 -31 7 11 9 23 6 26 -3 3 -8
-2 -12 -11 -3 -9 -10 -16 -15 -16 -4 0 -5 7 -2 17 4 11 3 14 -5 9 -8 -5 -6 6
4 26 16 35 54 50 54 21 0 -13 3 -13 15 -3 13 11 15 8 15 -17 0 -16 -7 -38 -15
-49 -19 -25 -18 -44 4 -71 24 -29 51 -29 73 1 24 33 28 274 5 308 l-15 23 -13
-33 c-8 -24 -14 -30 -20 -21 -4 7 -11 10 -15 6 -4 -4 -13 -2 -19 3 -9 8 -14 0
-19 -31 -6 -39 -8 -41 -21 -23 -19 25 -19 53 0 60 8 4 15 10 15 16 0 5 -4 7
-9 4 -12 -8 -21 64 -10 84 9 20 -25 22 -50 3z m52 -208 c8 -18 -11 -31 -25
-17 -11 11 -3 32 12 32 4 0 10 -7 13 -15z"/>
<path d="M5581 3003 c-10 -26 -10 -27 4 -9 8 11 15 23 15 28 0 15 -7 8 -19
-19z"/>
<path d="M5539 2943 l-24 -28 28 24 c25 23 32 31 24 31 -2 0 -14 -12 -28 -27z"/>
<path d="M5656 2945 c-11 -8 -15 -15 -9 -15 6 0 16 7 23 15 16 19 11 19 -14 0z"/>
<path d="M4020 2930 c0 -8 7 -24 16 -35 12 -17 16 -18 24 -5 5 8 6 18 4 22 -3
4 2 8 10 8 31 0 15 18 -19 22 -27 3 -35 0 -35 -12z"/>
<path d="M4117 2738 c-5 -112 0 -138 28 -138 17 0 49 121 43 162 -10 66 6 73
63 27 34 -27 38 -33 27 -48 -12 -14 -11 -15 4 -2 15 11 22 11 43 -3 28 -18 55
-21 55 -6 0 6 -13 13 -29 16 -33 7 -101 59 -101 78 0 9 -15 13 -47 12 -27 0
-55 3 -64 7 -14 7 -17 -6 -22 -105z"/>
<path d="M1575 2769 c-4 -6 -5 -12 -2 -15 2 -3 7 2 10 11 7 17 1 20 -8 4z"/>
<path d="M5421 2764 c0 -11 3 -14 6 -6 3 7 2 16 -1 19 -3 4 -6 -2 -5 -13z"/>
<path d="M1707 2630 c-9 -11 -24 -20 -32 -20 -18 0 -20 -29 -2 -36 7 -3 13
-28 14 -66 2 -50 7 -66 26 -86 l24 -24 8 67 c7 68 -2 185 -14 185 -3 0 -14 -9
-24 -20z"/>
<path d="M4098 2579 c-4 -27 12 -49 36 -49 15 0 4 56 -13 67 -17 11 -19 8 -23
-18z"/>
<path d="M1577 2530 c-3 -11 -3 -20 -1 -20 2 0 8 9 14 20 6 11 7 20 2 20 -6 0
-12 -9 -15 -20z"/>
<path d="M1949 2423 c5 -18 15 -29 29 -31 26 -4 28 5 6 36 -22 32 -44 29 -35
-5z"/>
<path d="M2725 2348 c-8 -27 -15 -188 -9 -212 4 -16 11 -23 21 -19 9 4 11 9 5
15 -5 5 -8 58 -5 119 4 98 0 132 -12 97z"/>
</g>
</svg>
